<?xml version="1.0" encoding="UTF-8"?>
<svg width="298px" height="89px" viewBox="0 0 298 89" version="1.1" xmlns="http://www.w3.org/2000/svg" xmlns:xlink="http://www.w3.org/1999/xlink">
    <title>logo</title>
    <g id="logo" stroke="none" stroke-width="1" fill="none" fill-rule="evenodd">
        <g id="Group-5-Copy" transform="translate(0, 7)" fill="#00A7BD" fill-rule="nonzero">
            <path d="M32.8687329,58.815097 C27.3793686,49.1113415 21.7880121,39.4625751 16.2585795,29.7808153 L16.2585795,29.7808153 C10.925846,20.4399883 5.63318093,11.0771656 0.318660366,1.72534078 L0.318660366,1.72534078 C-0.347931315,0.900503233 0.121961181,0.651218996 0.89418761,0.669548719 L0.89418761,0.669548719 C2.02484366,0.693010765 3.15732101,0.671748286 4.28943409,0.650485807 L4.28943409,0.650485807 C6.51249914,0.609060632 8.73592844,0.567268863 10.9513441,0.863843786 L10.9513441,0.863843786 C12.1096837,0.977488071 12.99483,1.63002622 13.6978475,2.47319349 L13.6978475,2.47319349 C17.4861281,7.02996271 21.9992816,7.63484357 27.1462436,5.20065632 L27.1462436,5.20065632 C28.8801105,4.38315066 30.6463963,3.631632 32.4316236,2.93180317 L32.4316236,2.93180317 C35.1671993,1.85364884 37.8809195,0.669548719 40.8605479,0.409266648 L40.8605479,0.409266648 C43.4832037,-0.144290996 46.1022169,-0.133293162 48.7248727,0.423930427 L48.7248727,0.423930427 C50.7720012,0.610893605 52.6078603,1.45772682 54.47286,2.24223898 L54.47286,2.24223898 C55.8278988,2.81412635 56.1557308,3.4267057 55.3215805,4.85239158 L55.3215805,4.85239158 C50.3531048,13.3427194 45.4501955,21.8733726 40.6055675,30.4370194 L40.6055675,30.4370194 C39.6257141,32.1710112 39.1376087,31.984048 38.2524624,30.3893621 L38.2524624,30.3893621 C35.7937226,25.9499031 33.2111351,21.5800971 30.6977567,17.1699656 L30.6977567,17.1699656 C30.2096513,16.3158005 29.7871123,15.5239565 28.5632063,15.9785336 L28.5632063,15.9785336 C26.3776598,16.7850414 24.0719082,17.0929808 21.8135102,17.411918 L21.8135102,17.411918 C21.6313813,18.2367555 22.1486273,18.7026971 22.4436761,19.2192287 L22.4436761,19.2192287 C27.6379916,28.2997736 32.8468774,37.3766526 38.0666909,46.4425338 L38.0666909,46.4425338 C39.4326575,48.8180659 39.4581555,48.8143999 40.8641905,46.3692149 L40.8641905,46.3692149 C48.9142867,32.3543084 56.9607404,18.335736 64.9962664,4.31349771 L64.9962664,4.31349771 C65.9105533,2.71881178 66.8794789,1.23777014 68.8610411,0.882173509 L68.8610411,0.882173509 C70.8630017,0.562503135 72.8751615,0.606494471 74.8876855,0.650119212 L74.8876855,0.650119212 C75.9025076,0.671748286 76.9173297,0.694110548 77.931059,0.669548719 L77.931059,0.669548719 L78.5794378,0.669548719 C78.9036272,0.673214664 79.1076116,1.03614319 78.940053,1.32208687 L78.940053,1.32208687 L78.2006098,2.58317183 C67.3821546,21.4554549 56.5491291,40.3204062 45.7598146,59.214685 L45.7598146,59.214685 C44.9948733,60.5527548 44.0769438,60.9926681 42.5798445,60.9926681 L42.5798445,60.9926681 C40.4343663,60.9926681 38.8389174,61 36.5295232,61 L36.5295232,61 C34.7009493,61 33.7356663,60.3547937 32.8687329,58.815097" id="path90-path" transform="translate(39.5, 30.5) scale(-1, 1) rotate(-180) translate(-39.5, -30.5)"></path>
            <polygon id="path90-path" transform="translate(221, 36) scale(-1, 1) rotate(-180) translate(-221, -36)" points="202 60 202 12 240 12 240 20.9122878 240 20.9171104 213.286104 20.9171104 213.286104 32.0237114 236.070326 32.0237114 236.070326 40.6659299 213.286104 40.6659299 213.286104 51.0877122 239.087842 51.0877122 239.087842 60"></polygon>
            <path d="M271.135664,12 L271.612308,12.002834 C287.291551,12.1897302 298,21.6065099 298,36 L297.996728,36.4344969 C297.780981,50.7224289 286.914741,60 271.135664,60 L249,60 L249,12 L271.135664,12 Z M270.572727,21.1139241 L260.273427,21.1139241 L260.273427,50.8716094 L270.572727,50.8716094 L270.929444,50.8738339 C280.400891,50.7353998 286.57972,45.0727867 286.57972,35.9951778 L286.57683,35.6565466 C286.42281,26.6691718 280.126038,21.1139241 270.572727,21.1139241 Z" id="Combined-Shape"></path>
            <polygon id="path90-path" transform="translate(184.5, 36) scale(-1, 1) rotate(-180) translate(-184.5, -36)" points="179 12 190 12 190 60 179 60"></polygon>
            <polygon id="path90-path" transform="translate(149.5, 36) scale(-1, 1) rotate(-180) translate(-149.5, -36)" points="132 60 132 12 167 12 167 21.0521451 143.050864 21.0521451 143.050864 60"></polygon>
            <polygon id="path90-path" transform="translate(104.5, 36) scale(-1, 1) rotate(-180) translate(-104.5, -36)" points="87 60 87 12 122 12 122 21.0521451 98.0508637 21.0521451 98.0508637 60"></polygon>
        </g>
    </g>
</svg>